Coordinates
version=1
nRows=60
nColumns=12
inDegrees=yes

Units are S.I. units (second, meters, Newtons, ...)
Angles are in degrees

endheader
time	SC_y	SC_z	SC_x	AC_y	AC_z	AC_x	GH_y	GH_z	GH_yy	EL_x	PS_y
       0.0               -56.4          13.95          81.49          64.51          1.649          1.583         -23.87          23.84         -106.7          74.42          93.59
   0.02353               -56.4          13.95          81.48          64.51          1.649          1.582         -23.88          23.84         -106.7          74.42          93.57
   0.04707               -56.4          13.95          81.48          64.51          1.648          1.581         -23.88          23.84         -106.7          74.42          93.56
    0.0706               -56.4          13.96          81.47          64.51          1.647           1.58         -23.89          23.84         -106.7          74.42          93.55
   0.09413               -56.4          13.96          81.46          64.51          1.647          1.578         -23.89          23.84         -106.7          74.42          93.53
    0.1177              -56.39          13.97          81.45          64.51          1.646          1.577          -23.9          23.84         -106.7          74.43          93.52
    0.1412              -56.39          13.97          81.43          64.51          1.645          1.576         -23.91          23.84         -106.7          74.43           93.5
    0.1647              -56.39          13.98          81.42          64.51          1.644          1.574         -23.91          23.84         -106.7          74.43          93.48
    0.1883              -56.39          13.98          81.41          64.51          1.643          1.573         -23.92          23.84         -106.7          74.44          93.46
    0.2118              -56.39          13.99           81.4          64.51          1.642          1.571         -23.93          23.84         -106.7          74.44          93.44
    0.2353              -56.38           14.0          81.38          64.51          1.641          1.569         -23.94          23.84         -106.7          74.44          93.42
    0.2589              -56.38           14.0          81.36          64.51          1.639          1.568         -23.95          23.84         -106.7          74.45          93.39
    0.2824              -56.38          14.01          81.35          64.51          1.638          1.565         -23.96          23.84         -106.6          74.45          93.37
    0.3059              -56.38          14.02          81.33          64.51          1.637          1.563         -23.97          23.84         -106.6          74.46          93.34
    0.3295              -56.37          14.03          81.31          64.51          1.635          1.561         -23.99          23.84         -106.6          74.46          93.31
     0.353              -56.37          14.04          81.29          64.51          1.633          1.558          -24.0          23.84         -106.6          74.47          93.28
    0.3765              -56.37          14.05          81.26          64.51          1.632          1.555         -24.02          23.85         -106.6          74.47          93.24
    0.4001              -56.36          14.06          81.24          64.51           1.63          1.552         -24.03          23.85         -106.6          74.48           93.2
    0.4236              -56.36          14.07          81.21          64.51          1.627          1.549         -24.05          23.85         -106.6          74.48          93.16
    0.4471              -56.35          14.09          81.18          64.51          1.625          1.545         -24.07          23.85         -106.6          74.49          93.11
    0.4707              -56.35           14.1          81.14          64.51          1.622          1.541         -24.09          23.85         -106.6           74.5          93.06
    0.4942              -56.34          14.12           81.1          64.51          1.619          1.537         -24.11          23.85         -106.5          74.51           93.0
    0.5177              -56.34          14.14          81.06          64.52          1.616          1.532         -24.14          23.86         -106.5          74.52          92.94
    0.5413              -56.33          14.16          81.02          64.52          1.613          1.526         -24.17          23.86         -106.5          74.53          92.87
    0.5648              -56.32          14.18          80.97          64.52          1.609           1.52          -24.2          23.86         -106.5          74.54           92.8
    0.5883              -56.31          14.21          80.91          64.52          1.604          1.513         -24.24          23.86         -106.5          74.56          92.71
    0.6119               -56.3          14.24          80.84          64.52          1.599          1.506         -24.28          23.87         -106.4          74.57          92.62
    0.6354              -56.29          14.27          80.77          64.52          1.594          1.497         -24.32          23.87         -106.4          74.59          92.51
    0.6589              -56.28          14.31          80.69          64.52          1.587          1.488         -24.38          23.87         -106.4          74.61          92.39
    0.6825              -56.26          14.35           80.6          64.52           1.58          1.477         -24.43          23.88         -106.3          74.63          92.25
     0.706              -56.25          14.39          80.49          64.52          1.572          1.464          -24.5          23.88         -106.3          74.66          92.09
    0.7295              -56.23          14.45          80.37          64.52          1.563           1.45         -24.58          23.89         -106.2          74.69          91.91
    0.7531              -56.21          14.51          80.23          64.52          1.552          1.433         -24.66          23.89         -106.2          74.72           91.7
    0.7766              -56.18          14.58          80.07          64.52          1.539          1.414         -24.77           23.9         -106.1          74.76          91.46
    0.8001              -56.16          14.67          79.88          64.52          1.525          1.392         -24.89          23.91         -106.0          74.81          91.17
    0.8237              -56.12          14.77          79.65          64.52          1.507          1.365         -25.03          23.92         -105.9          74.86          90.84
    0.8472              -56.08          14.89          79.39          64.52          1.487          1.333          -25.2          23.93         -105.8          74.93          90.44
    0.8707              -56.03          15.03          79.07          64.52          1.462          1.296          -25.4          23.95         -105.7           75.0          89.96
    0.8943              -55.97           15.2          78.68          64.52          1.432           1.25         -25.64          23.96         -105.5           75.1          89.39
    0.9178               -55.9          15.42          78.21          64.52          1.396          1.194         -25.94          23.99         -105.3          75.21          88.68
    0.9413              -55.81          15.68          77.63          64.52          1.351          1.125          -26.3          24.01         -105.1          75.35          87.81
    0.9649               -55.7           16.0           76.9          64.53          1.295          1.039         -26.76          24.05         -104.7          75.53          86.73
    0.9884              -55.56          16.41          75.99          64.53          1.224         0.9305         -27.34          24.09         -104.3          75.75          85.36
     1.012              -55.39          16.93          74.82          64.53          1.134         0.7928         -28.07          24.14         -103.8          76.03          83.62
     1.035              -55.16           17.6          73.34          64.53          1.019         0.6164         -29.01          24.21         -103.2          76.39           81.4
     1.059              -54.87          18.45          71.43          64.54         0.8718         0.3901         -30.21           24.3         -102.4          76.85          78.54
     1.083               -54.5          19.55          68.99          64.54         0.6834          0.101         -31.75          24.41         -101.3          77.44           74.9
     1.106              -54.04          20.92          65.92          64.55         0.4464        -0.2625         -33.68          24.55         -100.0          78.19          70.31
      1.13              -53.47          22.59          62.18          64.56         0.1576        -0.7054         -36.03          24.72         -98.42          79.09          64.72
     1.153              -52.81          24.53          57.84          64.57        -0.1771         -1.219         -38.76          24.92         -96.56          80.14          58.25
     1.177               -52.1          26.63          53.15          64.58        -0.5395         -1.775         -41.72          25.14         -94.55          81.28          51.24
       1.2              -51.38          28.73          48.46          64.59         -0.902         -2.331         -44.67          25.35         -92.54          82.42          44.22
     1.224              -50.73          30.67          44.13           64.6         -1.237         -2.844          -47.4          25.55         -90.68          83.47          37.75
     1.247              -50.16          32.35          40.39          64.61         -1.525         -3.287         -49.76          25.72         -89.07          84.37          32.16
     1.271              -49.69          33.72          37.32          64.62         -1.762         -3.651         -51.69          25.86         -87.76          85.11          27.58
     1.294              -49.32          34.81          34.88          64.63         -1.951          -3.94         -53.23          25.97         -86.71          85.71          23.93
     1.318              -49.03          35.67          32.97          64.63         -2.098         -4.166         -54.43          26.06         -85.89          86.17          21.07
     1.341              -48.81          36.33          31.48          64.64         -2.213         -4.342         -55.37          26.13         -85.25          86.53          18.85
     1.365              -48.63          36.85          30.32          64.64         -2.303          -4.48          -56.1          26.18         -84.75          86.81          17.11
     1.388              -48.49          37.26           29.4          64.64         -2.374         -4.589         -56.67          26.23         -84.36          87.03          15.75
